<svg xmlns="http://www.w3.org/2000/svg" xmlns:xlink="http://www.w3.org/1999/xlink" width="500" zoomAndPan="magnify" viewBox="0 0 375 374.999991" height="500" preserveAspectRatio="xMidYMid meet" version="1.0"><defs><filter x="0%" y="0%" width="100%" height="100%" id="032d5c0b21"><feColorMatrix values="0 0 0 0 1 0 0 0 0 1 0 0 0 0 1 0 0 0 1 0" color-interpolation-filters="sRGB"/></filter><g/><clipPath id="c5ff737206"><path d="M 48 155 L 84 155 L 84 204.582031 L 48 204.582031 Z M 48 155 " clip-rule="nonzero"/></clipPath><mask id="0996737c6d"><g filter="url(#032d5c0b21)"><rect x="-37.5" width="450" fill="#000000" y="-37.499999" height="449.999989" fill-opacity="0.7"/></g></mask><clipPath id="3270c6acdd"><path d="M 0.238281 1 L 35.761719 1 L 35.761719 49.582031 L 0.238281 49.582031 Z M 0.238281 1 " clip-rule="nonzero"/></clipPath><clipPath id="7597b8562f"><rect x="0" width="36" y="0" height="50"/></clipPath><clipPath id="174fbc24b7"><path d="M 75 156 L 111 156 L 111 204.582031 L 75 204.582031 Z M 75 156 " clip-rule="nonzero"/></clipPath><mask id="e7530fefb5"><g filter="url(#032d5c0b21)"><rect x="-37.5" width="450" fill="#000000" y="-37.499999" height="449.999989" fill-opacity="0.7"/></g></mask><clipPath id="8bf0a5dde4"><path d="M 0.601562 0 L 35.878906 0 L 35.878906 48.582031 L 0.601562 48.582031 Z M 0.601562 0 " clip-rule="nonzero"/></clipPath><clipPath id="e8b7335453"><rect x="0" width="36" y="0" height="49"/></clipPath></defs><g clip-path="url(#c5ff737206)"><g mask="url(#0996737c6d)"><g transform="matrix(1, 0, 0, 1, 48, 155)"><g clip-path="url(#7597b8562f)"><g clip-path="url(#3270c6acdd)"><path fill="#8663ea" d="M 35.476562 45.816406 C 35.484375 47.957031 33.753906 49.699219 31.613281 49.707031 C 31.59375 49.707031 31.570312 49.707031 31.550781 49.707031 C 26.871094 49.707031 22.476562 47.886719 19.167969 44.578125 L 5.570312 30.980469 C -1.257812 24.152344 -1.257812 13.039062 5.570312 6.207031 C 12.398438 -0.621094 23.511719 -0.621094 30.34375 6.207031 L 34.339844 10.207031 C 35.855469 11.71875 35.855469 14.175781 34.339844 15.6875 C 32.828125 17.203125 30.371094 17.203125 28.859375 15.6875 L 24.859375 11.6875 C 21.054688 7.882812 14.859375 7.882812 11.050781 11.6875 C 7.242188 15.496094 7.242188 21.691406 11.050781 25.5 L 24.648438 39.09375 C 26.492188 40.941406 28.941406 41.957031 31.550781 41.957031 C 31.566406 41.957031 31.582031 41.953125 31.601562 41.953125 C 33.734375 41.957031 35.46875 43.679688 35.476562 45.816406 Z M 20.605469 15.863281 C 19.085938 14.359375 16.632812 14.371094 15.125 15.890625 C 13.621094 17.414062 13.632812 19.867188 15.152344 21.371094 L 28.84375 34.929688 C 29.597656 35.679688 30.585938 36.050781 31.570312 36.050781 C 32.570312 36.050781 33.566406 35.667969 34.324219 34.902344 C 35.832031 33.382812 35.820312 30.929688 34.296875 29.421875 Z M 20.605469 15.863281 " fill-opacity="1" fill-rule="nonzero"/></g></g></g></g></g><g clip-path="url(#174fbc24b7)"><g mask="url(#e7530fefb5)"><g transform="matrix(1, 0, 0, 1, 75, 156)"><g clip-path="url(#e8b7335453)"><g clip-path="url(#8bf0a5dde4)"><path fill="#00c6fe" d="M 30.628906 29.980469 L 17.035156 43.578125 C 13.722656 46.886719 9.328125 48.707031 4.648438 48.707031 C 4.628906 48.707031 4.605469 48.707031 4.585938 48.707031 C 2.445312 48.699219 0.714844 46.957031 0.722656 44.816406 C 0.730469 42.683594 2.464844 40.957031 4.601562 40.957031 C 4.617188 40.957031 4.632812 40.957031 4.648438 40.957031 C 7.257812 40.957031 9.707031 39.941406 11.550781 38.097656 L 25.148438 24.5 C 28.957031 20.691406 28.957031 14.496094 25.148438 10.691406 C 21.339844 6.882812 15.144531 6.882812 11.339844 10.691406 L 7.339844 14.6875 C 5.828125 16.203125 3.371094 16.203125 1.859375 14.6875 C 0.347656 13.175781 0.347656 10.71875 1.859375 9.207031 L 5.859375 5.207031 C 12.6875 -1.621094 23.800781 -1.621094 30.628906 5.207031 C 37.460938 12.039062 37.460938 23.152344 30.628906 29.980469 Z M 4.671875 35.050781 C 5.65625 35.050781 6.644531 34.679688 7.398438 33.929688 L 21.089844 20.371094 C 22.609375 18.867188 22.625 16.414062 21.117188 14.890625 C 19.609375 13.371094 17.15625 13.359375 15.636719 14.863281 L 1.945312 28.421875 C 0.421875 29.929688 0.410156 32.382812 1.917969 33.902344 C 2.675781 34.667969 3.671875 35.050781 4.671875 35.050781 Z M 4.671875 35.050781 " fill-opacity="1" fill-rule="nonzero"/></g></g></g></g></g><g fill="#000000" fill-opacity="1"><g transform="translate(112.466899, 194.307717)"><g><path d="M 34.359375 -28.609375 L 34.359375 0 L 31.46875 0 L 31.46875 -22.875 L 20.21875 -3.640625 L 18.796875 -3.640625 L 7.5625 -22.765625 L 7.5625 0 L 4.65625 0 L 4.65625 -28.609375 L 7.15625 -28.609375 L 19.578125 -7.390625 L 31.875 -28.609375 Z M 34.359375 -28.609375 "/></g></g></g><g fill="#000000" fill-opacity="1"><g transform="translate(151.071511, 194.307717)"><g><path d="M 22.765625 -9.84375 L 4.78125 -9.84375 C 4.945312 -7.613281 5.804688 -5.8125 7.359375 -4.4375 C 8.910156 -3.0625 10.867188 -2.375 13.234375 -2.375 C 14.566406 -2.375 15.789062 -2.609375 16.90625 -3.078125 C 18.03125 -3.554688 19 -4.257812 19.8125 -5.1875 L 21.453125 -3.3125 C 20.492188 -2.164062 19.300781 -1.289062 17.875 -0.6875 C 16.445312 -0.09375 14.875 0.203125 13.15625 0.203125 C 10.945312 0.203125 8.988281 -0.265625 7.28125 -1.203125 C 5.582031 -2.140625 4.253906 -3.4375 3.296875 -5.09375 C 2.347656 -6.757812 1.875 -8.644531 1.875 -10.75 C 1.875 -12.84375 2.328125 -14.71875 3.234375 -16.375 C 4.148438 -18.039062 5.40625 -19.335938 7 -20.265625 C 8.59375 -21.191406 10.382812 -21.65625 12.375 -21.65625 C 14.363281 -21.65625 16.148438 -21.191406 17.734375 -20.265625 C 19.316406 -19.335938 20.554688 -18.050781 21.453125 -16.40625 C 22.347656 -14.757812 22.796875 -12.875 22.796875 -10.75 Z M 12.375 -19.15625 C 10.3125 -19.15625 8.578125 -18.492188 7.171875 -17.171875 C 5.765625 -15.859375 4.96875 -14.140625 4.78125 -12.015625 L 20.015625 -12.015625 C 19.828125 -14.140625 19.03125 -15.859375 17.625 -17.171875 C 16.226562 -18.492188 14.476562 -19.15625 12.375 -19.15625 Z M 12.375 -19.15625 "/></g></g></g><g fill="#000000" fill-opacity="1"><g transform="translate(175.33725, 194.307717)"><g><path d="M 23.65625 -30.3125 L 23.65625 0 L 20.875 0 L 20.875 -4.25 C 20.007812 -2.800781 18.859375 -1.695312 17.421875 -0.9375 C 15.992188 -0.175781 14.378906 0.203125 12.578125 0.203125 C 10.566406 0.203125 8.742188 -0.257812 7.109375 -1.1875 C 5.472656 -2.113281 4.191406 -3.40625 3.265625 -5.0625 C 2.335938 -6.726562 1.875 -8.625 1.875 -10.75 C 1.875 -12.875 2.335938 -14.765625 3.265625 -16.421875 C 4.191406 -18.085938 5.472656 -19.375 7.109375 -20.28125 C 8.742188 -21.195312 10.566406 -21.65625 12.578125 -21.65625 C 14.328125 -21.65625 15.898438 -21.289062 17.296875 -20.5625 C 18.703125 -19.84375 19.851562 -18.789062 20.75 -17.40625 L 20.75 -30.3125 Z M 12.828125 -2.375 C 14.328125 -2.375 15.679688 -2.71875 16.890625 -3.40625 C 18.109375 -4.101562 19.0625 -5.09375 19.75 -6.375 C 20.445312 -7.65625 20.796875 -9.113281 20.796875 -10.75 C 20.796875 -12.382812 20.445312 -13.835938 19.75 -15.109375 C 19.0625 -16.390625 18.109375 -17.378906 16.890625 -18.078125 C 15.679688 -18.773438 14.328125 -19.125 12.828125 -19.125 C 11.304688 -19.125 9.9375 -18.773438 8.71875 -18.078125 C 7.507812 -17.378906 6.554688 -16.390625 5.859375 -15.109375 C 5.171875 -13.835938 4.828125 -12.382812 4.828125 -10.75 C 4.828125 -9.113281 5.171875 -7.65625 5.859375 -6.375 C 6.554688 -5.09375 7.507812 -4.101562 8.71875 -3.40625 C 9.9375 -2.71875 11.304688 -2.375 12.828125 -2.375 Z M 12.828125 -2.375 "/></g></g></g><g fill="#000000" fill-opacity="1"><g transform="translate(202.626, 194.307717)"><g><path d="M 4.046875 -21.484375 L 6.953125 -21.484375 L 6.953125 0 L 4.046875 0 Z M 5.515625 -26.1875 C 4.921875 -26.1875 4.421875 -26.390625 4.015625 -26.796875 C 3.609375 -27.210938 3.40625 -27.707031 3.40625 -28.28125 C 3.40625 -28.820312 3.609375 -29.296875 4.015625 -29.703125 C 4.421875 -30.109375 4.921875 -30.3125 5.515625 -30.3125 C 6.117188 -30.3125 6.625 -30.113281 7.03125 -29.71875 C 7.4375 -29.320312 7.640625 -28.851562 7.640625 -28.3125 C 7.640625 -27.71875 7.4375 -27.210938 7.03125 -26.796875 C 6.625 -26.390625 6.117188 -26.1875 5.515625 -26.1875 Z M 5.515625 -26.1875 "/></g></g></g><g fill="#000000" fill-opacity="1"><g transform="translate(213.206509, 194.307717)"><g><path d="M 7.6875 -25.984375 L 7.6875 -14.75 L 22.46875 -14.75 L 22.46875 -12.140625 L 7.6875 -12.140625 L 7.6875 0 L 4.65625 0 L 4.65625 -28.609375 L 24.265625 -28.609375 L 24.265625 -25.984375 Z M 7.6875 -25.984375 "/></g></g></g><g fill="#000000" fill-opacity="1"><g transform="translate(238.656942, 194.307717)"><g><path d="M 4.65625 -28.609375 L 7.6875 -28.609375 L 7.6875 -2.609375 L 23.703125 -2.609375 L 23.703125 0 L 4.65625 0 Z M 4.65625 -28.609375 "/></g></g></g><g fill="#000000" fill-opacity="1"><g transform="translate(262.309922, 194.307717)"><g><path d="M 12.828125 0.203125 C 10.753906 0.203125 8.882812 -0.265625 7.21875 -1.203125 C 5.5625 -2.140625 4.253906 -3.4375 3.296875 -5.09375 C 2.347656 -6.757812 1.875 -8.644531 1.875 -10.75 C 1.875 -12.84375 2.347656 -14.71875 3.296875 -16.375 C 4.253906 -18.039062 5.5625 -19.335938 7.21875 -20.265625 C 8.882812 -21.191406 10.753906 -21.65625 12.828125 -21.65625 C 14.898438 -21.65625 16.765625 -21.191406 18.421875 -20.265625 C 20.085938 -19.335938 21.390625 -18.039062 22.328125 -16.375 C 23.265625 -14.71875 23.734375 -12.84375 23.734375 -10.75 C 23.734375 -8.644531 23.265625 -6.757812 22.328125 -5.09375 C 21.390625 -3.4375 20.085938 -2.140625 18.421875 -1.203125 C 16.765625 -0.265625 14.898438 0.203125 12.828125 0.203125 Z M 12.828125 -2.375 C 14.359375 -2.375 15.726562 -2.71875 16.9375 -3.40625 C 18.144531 -4.101562 19.085938 -5.09375 19.765625 -6.375 C 20.453125 -7.65625 20.796875 -9.113281 20.796875 -10.75 C 20.796875 -12.382812 20.453125 -13.835938 19.765625 -15.109375 C 19.085938 -16.390625 18.144531 -17.378906 16.9375 -18.078125 C 15.726562 -18.773438 14.359375 -19.125 12.828125 -19.125 C 11.304688 -19.125 9.9375 -18.773438 8.71875 -18.078125 C 7.507812 -17.378906 6.554688 -16.390625 5.859375 -15.109375 C 5.171875 -13.835938 4.828125 -12.382812 4.828125 -10.75 C 4.828125 -9.113281 5.171875 -7.65625 5.859375 -6.375 C 6.554688 -5.09375 7.507812 -4.101562 8.71875 -3.40625 C 9.9375 -2.71875 11.304688 -2.375 12.828125 -2.375 Z M 12.828125 -2.375 "/></g></g></g><g fill="#000000" fill-opacity="1"><g transform="translate(287.515246, 194.307717)"><g><path d="M 35.59375 -21.484375 L 27.453125 0 L 24.71875 0 L 17.9375 -17.609375 L 11.15625 0 L 8.421875 0 L 0.328125 -21.484375 L 3.109375 -21.484375 L 9.84375 -3.234375 L 16.75 -21.484375 L 19.25 -21.484375 L 26.109375 -3.234375 L 32.9375 -21.484375 Z M 35.59375 -21.484375 "/></g></g></g></svg>